<?xml version="1.0" standalone="no"?>
<!DOCTYPE svg PUBLIC "-//W3C//DTD SVG 20010904//EN"
 "http://www.w3.org/TR/2001/REC-SVG-20010904/DTD/svg10.dtd">
<svg version="1.0" xmlns="http://www.w3.org/2000/svg"
 width="500.000000pt" height="500.000000pt" viewBox="0 0 500.000000 500.000000"
 preserveAspectRatio="xMidYMid meet">
<metadata>
Created by potrace 1.14, written by Peter Selinger 2001-2017
</metadata>
<g transform="translate(0.000000,500.000000) scale(0.100000,-0.100000)"
fill="#000000" stroke="none">
<path d="M494 4976 c-195 -72 -353 -223 -433 -413 -64 -152 -60 -26 -60 -2043
0 -1040 4 -1857 9 -1885 16 -91 29 -131 61 -200 77 -166 221 -306 388 -375
154 -63 26 -59 2031 -59 1990 0 1905 -3 2045 56 215 90 371 267 442 499 16 56
18 163 19 1929 2 1573 0 1880 -12 1935 -53 246 -215 443 -448 544 l-71 31
-1955 2 -1955 2 -61 -23z"/>
</g>
</svg>
