<?xml version="1.0" encoding="UTF-8" standalone="no"?>
<!DOCTYPE svg PUBLIC "-//W3C//DTD SVG 1.1//EN" "http://www.w3.org/Graphics/SVG/1.1/DTD/svg11.dtd">
<!-- Created with Vectornator (http://vectornator.io/) -->
<svg height="100%" stroke-miterlimit="10" style="fill-rule:nonzero;clip-rule:evenodd;stroke-linecap:round;stroke-linejoin:round;" version="1.1" viewBox="0 0 154.44 167.053" width="100%" xml:space="preserve" xmlns="http://www.w3.org/2000/svg" xmlns:vectornator="http://vectornator.io" xmlns:xlink="http://www.w3.org/1999/xlink">
<defs/>
<g id="Calque-1" vectornator:layerName="Calque 1">
<g opacity="1">
<g opacity="0.199997">
<clipPath id="ClipPath">
<path d="M0.923722 166.027L153.7 166.027L153.7 1.3369L0.923722 1.3369L0.923722 166.027Z"/>
</clipPath>
<g clip-path="url(#ClipPath)">
<path d="M149.225 140.703L136.17 140.703C148.222 122.27 148.026 98.9628 137.008 80.9868C142.494 56.7788 133.857 30.4998 112.778 14.5468C92.0384-1.1502 64.9474-2.5482 43.3094 8.7018L5.39842 8.7018C2.93742 8.7018 0.92342 10.7158 0.92342 13.1768C0.92342 15.6378 2.93742 17.6508 5.39842 17.6508L30.2754 17.6508C29.8074 18.0658 29.3504 18.4998 28.8924 18.9298L5.71842 18.9298C3.25742 18.9298 1.24342 20.9428 1.24342 23.4038C1.24342 25.8658 3.25742 27.8788 5.71842 27.8788L20.9364 27.8788C6.84142 47.0098 4.73942 71.3578 13.3534 91.8548C8.82042 99.1778 6.19742 107.807 6.19742 117.052C6.19742 143.53 27.6624 164.994 54.1394 164.994C59.5614 164.994 64.7664 164.081 69.6254 162.422C84.0184 167.877 99.9644 167.06 113.603 160.519L136.44 160.519C138.901 160.519 140.915 158.506 140.915 156.044C140.915 153.583 138.901 151.571 136.44 151.571L126.904 151.571C127.587 150.95 128.259 150.312 128.916 149.653L149.225 149.653C151.686 149.653 153.7 147.639 153.7 145.178C153.7 142.717 151.686 140.703 149.225 140.703" fill="#63cdda" fill-rule="nonzero" opacity="1" stroke="none"/>
</g>
</g>
<path d="M123.417 89.3346C123.417 114.833 102.747 135.503 77.2493 135.503C51.7503 135.503 31.0803 114.833 31.0803 89.3346C31.0803 63.8366 51.7503 43.1666 77.2493 43.1666C102.747 43.1666 123.417 63.8366 123.417 89.3346" fill="#ffffff" fill-rule="nonzero" opacity="1" stroke="none"/>
<g opacity="1">
<clipPath id="ClipPath_2">
<path d="M31.081 89.3349C31.081 114.833 51.751 135.503 77.249 135.503C102.747 135.503 123.417 114.833 123.417 89.3349C123.417 63.8369 102.747 43.1659 77.249 43.1659C51.751 43.1659 31.081 63.8369 31.081 89.3349"/>
</clipPath>
<g clip-path="url(#ClipPath_2)">
<path d="M81.8035 110.999C79.9365 105.427 63.6705 102.919 57.8745 102.198C56.8975 102.076 55.9545 101.81 55.0025 101.562C53.9555 101.289 52.3465 101.38 50.9505 101.549C50.6015 101.592 50.2585 101.663 49.9195 101.748C49.9485 101.495 49.9915 101.237 50.0635 100.972C50.4945 99.4102 49.7195 97.7792 48.2855 97.0252C46.1755 95.9152 44.1235 93.6852 45.4485 89.2612C45.6475 88.5942 45.7465 87.9002 45.8015 87.2072C45.8935 86.0272 46.7465 84.1252 51.3985 84.5472C52.9255 84.6862 54.4235 83.9592 55.1955 82.6342C56.4115 80.5462 59.0545 77.5172 64.6675 75.4352C66.0625 74.9172 67.0745 73.5812 66.9975 72.0952C66.9575 71.3122 66.6205 70.4972 65.6855 69.8342C63.8255 68.5182 62.1975 66.8422 61.1975 64.7942C60.3485 63.0572 58.1345 61.5572 52.6865 62.4652C41.7235 64.2922 10.0555 51.5032 18.8865 74.0372C26.7665 94.1472 33.4345 88.4582 37.7405 93.6292C38.1515 94.1222 38.4685 94.6822 38.7325 95.2662C39.4115 96.7702 40.5925 98.7022 42.1765 98.7022C44.6315 98.7022 46.6685 101.158 46.6205 103.486C46.1535 103.912 45.7355 104.395 45.3995 104.948C43.7875 107.591 43.7085 111.664 51.6625 117.48C63.5945 126.205 61.1875 134.127 61.1875 134.127C61.1875 134.127 67.9995 139.499 71.1075 136.645C74.2165 133.792 84.0795 117.795 81.8035 110.999Z" fill="none" opacity="1" stroke="#000000" stroke-linecap="round" stroke-linejoin="round" stroke-width="1.826"/>
<path d="M106.385 48.4577C106.385 48.4577 113.357 68.9507 89.4576 71.9857C80.0416 73.1817 81.7166 84.5537 85.7816 85.5697C92.8136 87.3277 95.2116 86.7637 98.2466 79.1767C101.282 71.5897 107.523 80.7027 115.869 79.1847C124.215 77.6677 132.56 75.7707 132.56 75.7707C132.56 75.7707 116.628 50.3537 106.385 48.4577Z" fill="none" opacity="1" stroke="#000000" stroke-linecap="round" stroke-linejoin="round" stroke-width="1.826"/>
<path d="M56.6111 39.3732C56.6111 39.3732 57.0061 45.8722 74.7851 53.0482C92.5651 60.2252 95.3301 46.0162 103.232 46.3992C111.134 46.7842 86.6381 27.3532 56.6111 39.3732Z" fill="none" opacity="1" stroke="#000000" stroke-linecap="round" stroke-linejoin="round" stroke-width="1.826"/>
<path d="M125.015 82.509C125.015 82.509 94.6314 81.305 96.3194 96.154C98.0074 111.003 113.621 99.766 115.098 102.776C116.575 105.785 107.502 122.841 115.309 121.637C123.116 120.433 137.041 95.151 125.015 82.509Z" fill="none" opacity="1" stroke="#000000" stroke-linecap="round" stroke-linejoin="round" stroke-width="1.826"/>
<path d="M128.432 134.495C128.432 134.495 126.762 128.203 107.915 124.677C89.0685 121.152 89.1625 135.628 81.3405 136.812C73.5185 137.995 101.369 152.206 128.432 134.495Z" fill="none" opacity="1" stroke="#000000" stroke-linecap="round" stroke-linejoin="round" stroke-width="1.826"/>
</g>
</g>
<path d="M123.417 89.3346C123.417 114.833 102.747 135.503 77.2493 135.503C51.7503 135.503 31.0803 114.833 31.0803 89.3346C31.0803 63.8366 51.7503 43.1666 77.2493 43.1666C102.747 43.1666 123.417 63.8366 123.417 89.3346Z" fill="none" opacity="1" stroke="#31302e" stroke-linecap="round" stroke-linejoin="round" stroke-width="2.313"/>
<path d="M102.253 144.498C101.521 144.827 100.785 145.141 100.047 145.439" fill="none" opacity="1" stroke="#000000" stroke-linecap="round" stroke-linejoin="round" stroke-width="1.918"/>
<path d="M95.5833 147.042C66.7723 156.138 35.0743 142.42 22.3743 114.193C9.34232 85.2292 21.0113 51.4272 48.4123 36.4372" fill="none" opacity="1" stroke="#000000" stroke-dasharray="4.743000030517578" stroke-linecap="round" stroke-linejoin="round" stroke-width="1.918"/>
<path d="M50.5115 35.341C51.2235 34.986 51.9465 34.644 52.6785 34.315" fill="none" opacity="1" stroke="#000000" stroke-linecap="round" stroke-linejoin="round" stroke-width="1.918"/>
<path d="M60.8343 33.2057C60.8383 33.1267 60.8323 33.0517 60.8223 32.9777C62.6773 32.0737 65.2663 30.4367 64.2873 28.6727C63.3443 26.9737 60.4373 28.2617 58.7843 29.1817L53.6273 25.0977C53.3743 24.8967 53.0303 24.8547 52.7363 24.9887L51.6873 25.4677C51.2183 25.6817 51.0413 26.2567 51.3093 26.6977L54.3343 31.6757L49.6713 34.8007L46.0183 33.4417C45.4803 33.2407 45.0983 33.9727 45.5693 34.2997L48.7273 36.4937L48.9513 36.9197L48.8803 40.7547C48.8703 41.3287 49.6863 41.4467 49.8393 40.8927L50.8873 37.0947L56.1263 35.0137L57.6813 39.8947C57.9043 40.5977 58.6913 40.9467 59.3623 40.6427L59.8273 40.4317C60.2473 40.2397 60.5253 39.8297 60.5473 39.3677L60.8343 33.2057Z" fill="#63cdda" fill-rule="nonzero" opacity="1" stroke="none"/>
<path d="M60.8343 33.2057C60.8383 33.1267 60.8323 33.0517 60.8223 32.9777C62.6773 32.0737 65.2663 30.4367 64.2873 28.6727C63.3443 26.9737 60.4373 28.2617 58.7843 29.1817L53.6273 25.0977C53.3743 24.8967 53.0303 24.8547 52.7363 24.9887L51.6873 25.4677C51.2183 25.6817 51.0413 26.2567 51.3093 26.6977L54.3343 31.6757L49.6713 34.8007L46.0183 33.4417C45.4803 33.2407 45.0983 33.9727 45.5693 34.2997L48.7273 36.4937L48.9513 36.9197L48.8803 40.7547C48.8703 41.3287 49.6863 41.4467 49.8393 40.8927L50.8873 37.0947L56.1263 35.0137L57.6813 39.8947C57.9043 40.5977 58.6913 40.9467 59.3623 40.6427L59.8273 40.4317C60.2473 40.2397 60.5253 39.8297 60.5473 39.3677L60.8343 33.2057Z" fill="none" opacity="1" stroke="#000000" stroke-linecap="round" stroke-linejoin="round" stroke-width="1.726"/>
<path d="M4.27962 13.0168L57.4956 13.0168" fill="#ffffff" fill-rule="nonzero" opacity="1" stroke="none"/>
<path d="M4.27962 13.0168L57.4956 13.0168" fill="none" opacity="1" stroke="#31302e" stroke-linecap="round" stroke-linejoin="round" stroke-width="2.313"/>
<path d="M5.23862 22.6051L35.4426 22.6051" fill="#ffffff" fill-rule="nonzero" opacity="1" stroke="none"/>
<path d="M5.23862 22.6051L35.4426 22.6051" fill="none" opacity="1" stroke="#31302e" stroke-linecap="round" stroke-linejoin="round" stroke-width="2.313"/>
<path d="M147.627 145.338L116.944 145.338" fill="#ffffff" fill-rule="nonzero" opacity="1" stroke="none"/>
<path d="M147.627 145.338L116.944 145.338" fill="none" opacity="1" stroke="#31302e" stroke-linecap="round" stroke-linejoin="round" stroke-width="2.313"/>
<path d="M135.162 156.364L104.958 156.364" fill="#ffffff" fill-rule="nonzero" opacity="1" stroke="none"/>
<path d="M135.162 156.364L104.958 156.364" fill="none" opacity="1" stroke="#31302e" stroke-linecap="round" stroke-linejoin="round" stroke-width="2.313"/>
<path d="M109.533 35.3332L114.787 40.1042" fill="#ffffff" fill-rule="nonzero" opacity="1" stroke="none"/>
<path d="M109.533 35.3332L114.787 40.1042" fill="none" opacity="1" stroke="#31302e" stroke-linecap="round" stroke-linejoin="round" stroke-width="1.531"/>
<path d="M114.545 35.0915L109.774 40.3455" fill="#ffffff" fill-rule="nonzero" opacity="1" stroke="none"/>
<path d="M114.545 35.0915L109.774 40.3455" fill="none" opacity="1" stroke="#31302e" stroke-linecap="round" stroke-linejoin="round" stroke-width="1.531"/>
<path d="M119.325 48.2204L124.578 52.9914" fill="#ffffff" fill-rule="nonzero" opacity="1" stroke="none"/>
<path d="M119.325 48.2204L124.578 52.9914" fill="none" opacity="1" stroke="#31302e" stroke-linecap="round" stroke-linejoin="round" stroke-width="1.531"/>
<path d="M124.337 47.9787L119.566 53.2327" fill="#ffffff" fill-rule="nonzero" opacity="1" stroke="none"/>
<path d="M124.337 47.9787L119.566 53.2327" fill="none" opacity="1" stroke="#31302e" stroke-linecap="round" stroke-linejoin="round" stroke-width="1.531"/>
<path d="M124.941 135.61L124.941 135.61C123.086 136.296 121.007 135.339 120.322 133.484L112.677 112.798C111.992 110.943 112.948 108.864 114.803 108.179C116.658 107.493 118.737 108.45 119.422 110.305L127.067 130.991C127.753 132.846 126.796 134.924 124.941 135.61" fill="#ffffff" fill-rule="nonzero" opacity="1" stroke="none"/>
<path d="M124.941 135.61L124.941 135.61C123.086 136.296 121.007 135.339 120.322 133.484L112.677 112.798C111.992 110.943 112.948 108.864 114.803 108.179C116.658 107.493 118.737 108.45 119.422 110.305L127.067 130.991C127.753 132.846 126.796 134.924 124.941 135.61Z" fill="none" opacity="1" stroke="#31302e" stroke-linecap="round" stroke-linejoin="round" stroke-width="2.313"/>
<path d="M128.022 104.797C124.906 113.876 115.021 118.709 105.942 115.593C96.8638 112.477 92.0308 102.591 95.1468 93.5126C98.2628 84.4346 108.148 79.6016 117.226 82.7166C126.305 85.8326 131.138 95.7186 128.022 104.797" fill="#ffffff" fill-rule="nonzero" opacity="1" stroke="none"/>
<path d="M128.022 104.797C124.906 113.876 115.021 118.709 105.942 115.593C96.8638 112.477 92.0308 102.591 95.1468 93.5126C98.2628 84.4346 108.148 79.6016 117.226 82.7166C126.305 85.8326 131.138 95.7186 128.022 104.797Z" fill="none" opacity="1" stroke="#31302e" stroke-linecap="round" stroke-linejoin="round" stroke-width="1.918"/>
<path d="M123.586 103.274C121.311 109.902 114.093 113.431 107.465 111.156C100.837 108.881 97.3077 101.664 99.5827 95.0351C101.858 88.4071 109.075 84.8781 115.704 87.1531C122.332 89.4281 125.861 96.6461 123.586 103.274" fill="#63cdda" fill-rule="nonzero" opacity="1" stroke="none"/>
<path d="M123.586 103.274C121.311 109.902 114.093 113.431 107.465 111.156C100.837 108.881 97.3077 101.664 99.5827 95.0351C101.858 88.4071 109.075 84.8781 115.704 87.1531C122.332 89.4281 125.861 96.6461 123.586 103.274Z" fill="none" opacity="1" stroke="#31302e" stroke-linecap="round" stroke-linejoin="round" stroke-width="1.689"/>
<path d="M107.736 91.4396C112.859 89.3016 118.746 91.7226 120.883 96.8456" fill="none" opacity="1" stroke="#31302e" stroke-linecap="round" stroke-linejoin="round" stroke-width="1.338"/>
<path d="M89.8895 79.7526C90.2815 80.5036 91.3545 80.5116 91.7565 79.7646L94.3935 74.8626C94.8655 74.1696 95.1405 73.0766 95.1405 72.1746C95.1405 69.7786 93.1915 67.8366 90.7915 67.8506C88.6115 67.8616 86.7155 69.5906 86.5105 71.7616C86.4525 72.3666 86.5235 72.9476 86.6935 73.4846L87.0035 74.2156C87.0065 74.2226 87.0125 74.2336 87.0145 74.2406L89.8895 79.7526Z" fill="#63cdda" fill-rule="nonzero" opacity="1" stroke="none"/>
<path d="M89.8895 79.7526C90.2815 80.5036 91.3545 80.5116 91.7565 79.7646L94.3935 74.8626C94.8655 74.1696 95.1405 73.0766 95.1405 72.1746C95.1405 69.7786 93.1915 67.8366 90.7915 67.8506C88.6115 67.8616 86.7155 69.5906 86.5105 71.7616C86.4525 72.3666 86.5235 72.9476 86.6935 73.4846L87.0035 74.2156C87.0065 74.2226 87.0125 74.2336 87.0145 74.2406L89.8895 79.7526Z" fill="none" opacity="1" stroke="#000000" stroke-linecap="round" stroke-linejoin="round" stroke-width="1.247"/>
<path d="M93.1053 72.5724C93.1053 73.8374 92.0803 74.8624 90.8153 74.8624C89.5513 74.8624 88.5253 73.8374 88.5253 72.5724C88.5253 71.3074 89.5513 70.2824 90.8153 70.2824C92.0803 70.2824 93.1053 71.3074 93.1053 72.5724" fill="#ffffff" fill-rule="nonzero" opacity="1" stroke="none"/>
<path d="M93.1053 72.5724C93.1053 73.8374 92.0803 74.8624 90.8153 74.8624C89.5513 74.8624 88.5253 73.8374 88.5253 72.5724C88.5253 71.3074 89.5513 70.2824 90.8153 70.2824C92.0803 70.2824 93.1053 71.3074 93.1053 72.5724Z" fill="none" opacity="1" stroke="#000000" stroke-linecap="round" stroke-linejoin="round" stroke-width="1.247"/>
<path d="M59.2064 108.89C59.5984 109.642 60.6714 109.649 61.0734 108.902L63.7104 104C64.1824 103.307 64.4574 102.214 64.4574 101.312C64.4574 98.9158 62.5084 96.9748 60.1084 96.9878C57.9284 96.9988 56.0324 98.7278 55.8274 100.899C55.7694 101.504 55.8404 102.085 56.0104 102.622L56.3204 103.354C56.3234 103.361 56.3294 103.371 56.3314 103.378L59.2064 108.89Z" fill="#ffffff" fill-rule="nonzero" opacity="1" stroke="none"/>
<path d="M59.2064 108.89C59.5984 109.642 60.6714 109.649 61.0734 108.902L63.7104 104C64.1824 103.307 64.4574 102.214 64.4574 101.312C64.4574 98.9158 62.5084 96.9748 60.1084 96.9878C57.9284 96.9988 56.0324 98.7278 55.8274 100.899C55.7694 101.504 55.8404 102.085 56.0104 102.622L56.3204 103.354C56.3234 103.361 56.3294 103.371 56.3314 103.378L59.2064 108.89Z" fill="none" opacity="1" stroke="#000000" stroke-linecap="round" stroke-linejoin="round" stroke-width="1.247"/>
<path d="M62.4222 101.71C62.4222 102.974 61.3972 104 60.1322 104C58.8682 104 57.8422 102.974 57.8422 101.71C57.8422 100.445 58.8682 99.4201 60.1322 99.4201C61.3972 99.4201 62.4222 100.445 62.4222 101.71" fill="#ffffff" fill-rule="nonzero" opacity="1" stroke="none"/>
<path d="M62.4222 101.71C62.4222 102.974 61.3972 104 60.1322 104C58.8682 104 57.8422 102.974 57.8422 101.71C57.8422 100.445 58.8682 99.4201 60.1322 99.4201C61.3972 99.4201 62.4222 100.445 62.4222 101.71Z" fill="none" opacity="1" stroke="#000000" stroke-linecap="round" stroke-linejoin="round" stroke-width="1.247"/>
<path d="M59.0989 72.214C59.4909 72.966 60.5639 72.973 60.9659 72.226L63.6029 67.324C64.0749 66.631 64.3499 65.538 64.3499 64.636C64.3499 62.24 62.4009 60.299 60.0009 60.312C57.8209 60.323 55.9249 62.052 55.7199 64.223C55.6619 64.828 55.7329 65.409 55.9029 65.946L56.2129 66.678C56.2159 66.684 56.2219 66.695 56.2239 66.702L59.0989 72.214Z" fill="#63cdda" fill-rule="nonzero" opacity="1" stroke="none"/>
<path d="M59.0989 72.214C59.4909 72.966 60.5639 72.973 60.9659 72.226L63.6029 67.324C64.0749 66.631 64.3499 65.538 64.3499 64.636C64.3499 62.24 62.4009 60.299 60.0009 60.312C57.8209 60.323 55.9249 62.052 55.7199 64.223C55.6619 64.828 55.7329 65.409 55.9029 65.946L56.2129 66.678C56.2159 66.684 56.2219 66.695 56.2239 66.702L59.0989 72.214Z" fill="none" opacity="1" stroke="#000000" stroke-linecap="round" stroke-linejoin="round" stroke-width="1.247"/>
<path d="M62.3148 65.0339C62.3148 66.2989 61.2898 67.3239 60.0248 67.3239C58.7608 67.3239 57.7348 66.2989 57.7348 65.0339C57.7348 63.7699 58.7608 62.7439 60.0248 62.7439C61.2898 62.7439 62.3148 63.7699 62.3148 65.0339" fill="#ffffff" fill-rule="nonzero" opacity="1" stroke="none"/>
<path d="M62.3148 65.0339C62.3148 66.2989 61.2898 67.3239 60.0248 67.3239C58.7608 67.3239 57.7348 66.2989 57.7348 65.0339C57.7348 63.7699 58.7608 62.7439 60.0248 62.7439C61.2898 62.7439 62.3148 63.7699 62.3148 65.0339Z" fill="none" opacity="1" stroke="#000000" stroke-linecap="round" stroke-linejoin="round" stroke-width="1.247"/>
<path d="M107.149 60.0964C107.541 60.8474 108.614 60.8544 109.016 60.1084L111.652 55.2054C112.125 54.5134 112.4 53.4204 112.4 52.5184C112.4 50.1224 110.451 48.1804 108.051 48.1944C105.871 48.2054 103.975 49.9344 103.77 52.1054C103.712 52.7104 103.783 53.2914 103.953 53.8274L104.263 54.5594C104.266 54.5664 104.271 54.5774 104.274 54.5844L107.149 60.0964Z" fill="#ffffff" fill-rule="nonzero" opacity="1" stroke="none"/>
<path d="M107.149 60.0964C107.541 60.8474 108.614 60.8544 109.016 60.1084L111.652 55.2054C112.125 54.5134 112.4 53.4204 112.4 52.5184C112.4 50.1224 110.451 48.1804 108.051 48.1944C105.871 48.2054 103.975 49.9344 103.77 52.1054C103.712 52.7104 103.783 53.2914 103.953 53.8274L104.263 54.5594C104.266 54.5664 104.271 54.5774 104.274 54.5844L107.149 60.0964Z" fill="none" opacity="1" stroke="#000000" stroke-linecap="round" stroke-linejoin="round" stroke-width="1.247"/>
<path d="M110.365 52.9162C110.365 54.1812 109.34 55.2062 108.075 55.2062C106.811 55.2062 105.785 54.1812 105.785 52.9162C105.785 51.6512 106.811 50.6262 108.075 50.6262C109.34 50.6262 110.365 51.6512 110.365 52.9162" fill="#ffffff" fill-rule="nonzero" opacity="1" stroke="none"/>
<path d="M110.365 52.9162C110.365 54.1812 109.34 55.2062 108.075 55.2062C106.811 55.2062 105.785 54.1812 105.785 52.9162C105.785 51.6512 106.811 50.6262 108.075 50.6262C109.34 50.6262 110.365 51.6512 110.365 52.9162Z" fill="none" opacity="1" stroke="#000000" stroke-linecap="round" stroke-linejoin="round" stroke-width="1.247"/>
<path d="M29.4993 143.005L34.8913 147.62" fill="#ffffff" fill-rule="nonzero" opacity="1" stroke="none"/>
<path d="M29.4993 143.005L34.8913 147.62" fill="none" opacity="1" stroke="#31302e" stroke-linecap="round" stroke-linejoin="round" stroke-width="1.531"/>
<path d="M34.5027 142.616L29.8877 148.008" fill="#ffffff" fill-rule="nonzero" opacity="1" stroke="none"/>
<path d="M34.5027 142.616L29.8877 148.008" fill="none" opacity="1" stroke="#31302e" stroke-linecap="round" stroke-linejoin="round" stroke-width="1.531"/>
</g>
</g>
</svg>
