<?xml version="1.0" encoding="UTF-8" standalone="no"?>
<!DOCTYPE svg PUBLIC "-//W3C//DTD SVG 1.1//EN" "http://www.w3.org/Graphics/SVG/1.1/DTD/svg11.dtd">
<!-- Created with Vectornator (http://vectornator.io/) -->
<svg height="100%" stroke-miterlimit="10" style="fill-rule:nonzero;clip-rule:evenodd;stroke-linecap:round;stroke-linejoin:round;" version="1.1" viewBox="0 0 150.184 173.534" width="100%" xml:space="preserve" xmlns="http://www.w3.org/2000/svg" xmlns:vectornator="http://vectornator.io" xmlns:xlink="http://www.w3.org/1999/xlink">
<defs/>
<g id="Calque-1" vectornator:layerName="Calque 1">
<g opacity="0.199997">
<clipPath id="ClipPath">
<path d="M1.05345 172.252L149.354 172.252L149.354 0.93838L1.05345 0.93838L1.05345 172.252Z"/>
</clipPath>
<g clip-path="url(#ClipPath)">
<path d="M149.355 48.1402C149.355 22.0712 126.508 0.938178 98.3274 0.938178C91.1484 0.938178 84.3194 2.31518 78.1234 4.79018C71.7344 2.31318 64.7034 0.938178 57.3164 0.938178C44.5604 0.938178 32.8574 5.03118 23.7104 11.8462L4.63036 11.8462C2.66336 11.8462 1.05336 13.4332 1.05336 15.3742C1.05336 17.3152 2.66336 18.9042 4.63036 18.9042L16.0184 18.9042C8.69636 27.1552 4.30536 37.6402 4.30536 49.0602C4.30536 64.3682 12.1884 77.9952 24.4604 86.8092C18.2804 95.3392 14.7124 105.371 14.7124 116.11C14.7124 124.222 16.7624 131.924 20.4204 138.888L16.9894 138.888C15.0224 138.888 13.4124 140.475 13.4124 142.416C13.4124 144.357 15.0224 145.945 16.9894 145.945L24.8664 145.945C36.6054 161.744 57.3764 172.251 81.0584 172.251C117.7 172.251 147.403 147.116 147.403 116.11C147.403 103.303 142.326 91.5042 133.794 82.0582C143.384 73.4762 149.355 61.4562 149.355 48.1402" fill="#63cdda" fill-rule="nonzero" opacity="1" stroke="none"/>
</g>
</g>
<path d="M120.347 106.033L125.601 110.804" fill="none" opacity="1" stroke="#000000" stroke-linecap="round" stroke-linejoin="round" stroke-width="1.918"/>
<path d="M125.36 105.792L120.589 111.045" fill="none" opacity="1" stroke="#000000" stroke-linecap="round" stroke-linejoin="round" stroke-width="1.918"/>
<path d="M98.076 14.7047L103.33 19.4757" fill="none" opacity="1" stroke="#000000" stroke-linecap="round" stroke-linejoin="round" stroke-width="1.534"/>
<path d="M103.089 14.4635L98.3176 19.7175" fill="none" opacity="1" stroke="#000000" stroke-linecap="round" stroke-linejoin="round" stroke-width="1.534"/>
<path d="M35.6 88.1998C35.6 88.1998 29.966 89.8378 30.613 94.0918C31.261 98.3458 40.92 96.3348 40.92 96.3348" fill="#ffffff" fill-rule="nonzero" opacity="1" stroke="none"/>
<path d="M35.6 88.1998C35.6 88.1998 29.966 89.8378 30.613 94.0918C31.261 98.3458 40.92 96.3348 40.92 96.3348" fill="none" opacity="1" stroke="#000000" stroke-linecap="round" stroke-linejoin="round" stroke-width="1.918"/>
<path d="M75.6712 52.1285L66.7242 54.8385C65.3362 55.2595 63.8562 54.4675 63.4362 53.0795C63.0152 51.6915 63.8072 50.2115 65.1952 49.7915L74.1422 47.0815C75.5302 46.6605 77.0102 47.4525 77.4302 48.8405C77.8512 50.2285 77.0592 51.7085 75.6712 52.1285" fill="#63cdda" fill-rule="nonzero" opacity="1" stroke="none"/>
<path d="M75.6712 52.1285L66.7242 54.8385C65.3362 55.2595 63.8562 54.4675 63.4362 53.0795C63.0152 51.6915 63.8072 50.2115 65.1952 49.7915L74.1422 47.0815C75.5302 46.6605 77.0102 47.4525 77.4302 48.8405C77.8512 50.2285 77.0592 51.7085 75.6712 52.1285Z" fill="none" opacity="1" stroke="#000000" stroke-linecap="round" stroke-linejoin="round" stroke-width="1.918"/>
<path d="M81.4812 58.9625L72.5332 61.6725C71.1462 62.0935 69.6662 61.3015 69.2452 59.9135C68.8252 58.5255 69.6172 57.0455 71.0042 56.6255L79.9522 53.9155C81.3392 53.4955 82.8192 54.2865 83.2402 55.6745C83.6612 57.0625 82.8692 58.5425 81.4812 58.9625" fill="#63cdda" fill-rule="nonzero" opacity="1" stroke="none"/>
<path d="M81.4812 58.9625L72.5332 61.6725C71.1462 62.0935 69.6662 61.3015 69.2452 59.9135C68.8252 58.5255 69.6172 57.0455 71.0042 56.6255L79.9522 53.9155C81.3392 53.4955 82.8192 54.2865 83.2402 55.6745C83.6612 57.0625 82.8692 58.5425 81.4812 58.9625Z" fill="none" opacity="1" stroke="#000000" stroke-linecap="round" stroke-linejoin="round" stroke-width="1.918"/>
<path d="M87.4617 109.12L78.1977 110.374C76.7607 110.569 75.7437 111.904 75.9387 113.341C76.1327 114.778 77.4677 115.795 78.9047 115.6L88.1697 114.346C89.6067 114.152 90.6227 112.817 90.4287 111.379C90.2337 109.942 88.8987 108.926 87.4617 109.12" fill="#63cdda" fill-rule="nonzero" opacity="1" stroke="none"/>
<path d="M87.4617 109.12L78.1977 110.374C76.7607 110.569 75.7437 111.904 75.9387 113.341C76.1327 114.778 77.4677 115.795 78.9047 115.6L88.1697 114.346C89.6067 114.152 90.6227 112.817 90.4287 111.379C90.2337 109.942 88.8987 108.926 87.4617 109.12Z" fill="none" opacity="1" stroke="#31302e" stroke-linecap="round" stroke-linejoin="round" stroke-width="1.918"/>
<path d="M90.4598 99.9566L81.1958 101.211C79.7588 101.406 78.7418 102.741 78.9368 104.178C79.1308 105.615 80.4658 106.631 81.9028 106.437L91.1678 105.183C92.6048 104.988 93.6208 103.653 93.4268 102.216C93.2318 100.779 91.8968 99.7616 90.4598 99.9566" fill="#63cdda" fill-rule="nonzero" opacity="1" stroke="none"/>
<path d="M90.4598 99.9566L81.1958 101.211C79.7588 101.406 78.7418 102.741 78.9368 104.178C79.1308 105.615 80.4658 106.631 81.9028 106.437L91.1678 105.183C92.6048 104.988 93.6208 103.653 93.4268 102.216C93.2318 100.779 91.8968 99.7616 90.4598 99.9566Z" fill="none" opacity="1" stroke="#000000" stroke-linecap="round" stroke-linejoin="round" stroke-width="1.918"/>
<path d="M93.2167 89.1876C93.3147 88.8436 93.3657 88.5036 93.3987 88.1666C102.531 86.0896 115.661 81.5246 113.156 72.7186C110.744 64.2376 96.5647 66.9266 88.3107 69.2886L69.7387 45.9146C68.8267 44.7666 67.3487 44.2266 65.9107 44.5156L60.7807 45.5466C58.4877 46.0076 57.1117 48.3686 57.8397 50.5916L66.0707 75.7176L42.2377 84.7146L27.4987 74.9346C25.3277 73.4946 22.8837 76.3316 24.6287 78.2656L36.3167 91.2186L36.8677 93.3346L32.5957 110.208C31.9567 112.733 35.4437 114.1 36.6897 111.812L45.2447 96.1066L70.5447 92.3156L72.3757 115.495C72.6397 118.83 75.7557 121.187 79.0367 120.532L81.3067 120.079C83.3627 119.669 85.0157 118.142 85.5867 116.125L93.2167 89.1876Z" fill="#ffffff" fill-rule="nonzero" opacity="1" stroke="none"/>
<path d="M93.2167 89.1876C93.3147 88.8436 93.3657 88.5036 93.3987 88.1666C102.531 86.0896 115.661 81.5246 113.156 72.7186C110.744 64.2376 96.5647 66.9266 88.3107 69.2886L69.7387 45.9146C68.8267 44.7666 67.3487 44.2266 65.9107 44.5156L60.7807 45.5466C58.4877 46.0076 57.1117 48.3686 57.8397 50.5916L66.0707 75.7176L42.2377 84.7146L27.4987 74.9346C25.3277 73.4946 22.8837 76.3316 24.6287 78.2656L36.3167 91.2186L36.8677 93.3346L32.5957 110.208C31.9567 112.733 35.4437 114.1 36.6897 111.812L45.2447 96.1066L70.5447 92.3156L72.3757 115.495C72.6397 118.83 75.7557 121.187 79.0367 120.532L81.3067 120.079C83.3627 119.669 85.0157 118.142 85.5867 116.125L93.2167 89.1876Z" fill="none" opacity="1" stroke="#000000" stroke-linecap="round" stroke-linejoin="round" stroke-width="1.918"/>
<path d="M93.8085 83.3102C96.4945 82.5752 98.0765 79.8022 97.3405 77.1162C96.6055 74.4302 93.8315 72.8492 91.1465 73.5842L93.8085 83.3102Z" fill="#63cdda" fill-rule="nonzero" opacity="1" stroke="none"/>
<path d="M93.8085 83.3102C96.4945 82.5752 98.0765 79.8022 97.3405 77.1162C96.6055 74.4302 93.8315 72.8492 91.1465 73.5842L93.8085 83.3102Z" fill="none" opacity="1" stroke="#000000" stroke-linecap="round" stroke-linejoin="round" stroke-width="1.379"/>
<path d="M60.3002 57.4552L75.5642 53.7592" fill="#ffffff" fill-rule="nonzero" opacity="1" stroke="none"/>
<path d="M60.3002 57.4552L75.5642 53.7592" fill="none" opacity="1" stroke="#000000" stroke-linecap="round" stroke-linejoin="round" stroke-width="1.918"/>
<path d="M62.9794 63.3736L80.1584 59.3856" fill="#ffffff" fill-rule="nonzero" opacity="1" stroke="none"/>
<path d="M62.9794 63.3736L80.1584 59.3856" fill="none" opacity="1" stroke="#000000" stroke-linecap="round" stroke-linejoin="round" stroke-width="1.918"/>
<path d="M89.1444 104.426L72.7744 106.616" fill="#ffffff" fill-rule="nonzero" opacity="1" stroke="none"/>
<path d="M89.1444 104.426L72.7744 106.616" fill="none" opacity="1" stroke="#000000" stroke-linecap="round" stroke-linejoin="round" stroke-width="2.001"/>
<path d="M90.1708 97.8209L71.8088 100.453" fill="#ffffff" fill-rule="nonzero" opacity="1" stroke="none"/>
<path d="M90.1708 97.8209L71.8088 100.453" fill="none" opacity="1" stroke="#000000" stroke-linecap="round" stroke-linejoin="round" stroke-width="2.001"/>
<path d="M130.202 46.8028C137.702 46.8028 140.41 36.7348 133.83 33.1358C133.78 33.1088 133.731 33.0818 133.681 33.0558C133.682 32.9758 133.693 32.8998 133.693 32.8198C133.693 24.7438 127.146 18.1978 119.071 18.1978C112.475 18.1978 106.903 22.5668 105.081 28.5668C103.354 28.1948 101.509 28.1388 99.5879 28.5558C93.7229 29.8258 89.3189 35.0018 89.1149 40.9978C89.1129 41.0448 89.1119 41.0928 89.1109 41.1398C89.0379 44.2658 91.6419 46.8028 94.7699 46.8028L130.202 46.8028Z" fill="#ffffff" fill-rule="nonzero" opacity="1" stroke="none"/>
<path d="M130.202 46.8028C137.702 46.8028 140.41 36.7348 133.83 33.1358C133.78 33.1088 133.731 33.0818 133.681 33.0558C133.682 32.9758 133.693 32.8998 133.693 32.8198C133.693 24.7438 127.146 18.1978 119.071 18.1978C112.475 18.1978 106.903 22.5668 105.081 28.5668C103.354 28.1948 101.509 28.1388 99.5879 28.5558C93.7229 29.8258 89.3189 35.0018 89.1149 40.9978C89.1129 41.0448 89.1119 41.0928 89.1109 41.1398C89.0379 44.2658 91.6419 46.8028 94.7699 46.8028L130.202 46.8028Z" fill="none" opacity="1" stroke="#000000" stroke-linecap="round" stroke-linejoin="round" stroke-width="1.918"/>
<path d="M128.979 32.6602C128.979 27.4082 124.722 23.1512 119.47 23.1512" fill="#ffffff" fill-rule="nonzero" opacity="1" stroke="none"/>
<path d="M128.979 32.6602C128.979 27.4082 124.722 23.1512 119.47 23.1512" fill="none" opacity="1" stroke="#31302e" stroke-linecap="round" stroke-linejoin="round" stroke-width="1.531"/>
<path d="M11.4407 15.4806L64.6567 15.4806" fill="none" opacity="1" stroke="#000000" stroke-linecap="round" stroke-linejoin="round" stroke-width="1.918"/>
<path d="M38.9275 24.19L69.1315 24.19" fill="none" opacity="1" stroke="#000000" stroke-linecap="round" stroke-linejoin="round" stroke-width="1.918"/>
<path d="M6.80644 15.6407C6.80644 16.5227 6.09044 17.2387 5.20844 17.2387C4.32544 17.2387 3.61044 16.5227 3.61044 15.6407C3.61044 14.7577 4.32544 14.0427 5.20844 14.0427C6.09044 14.0427 6.80644 14.7577 6.80644 15.6407" fill="#000000" fill-rule="nonzero" opacity="1" stroke="none"/>
<path d="M76.1629 24.19C76.1629 25.073 75.4479 25.788 74.5649 25.788C73.6829 25.788 72.9669 25.073 72.9669 24.19C72.9669 23.308 73.6829 22.592 74.5649 22.592C75.4479 22.592 76.1629 23.308 76.1629 24.19" fill="#000000" fill-rule="nonzero" opacity="1" stroke="none"/>
<path d="M62.1 132.3L31.896 132.3" fill="none" opacity="1" stroke="#000000" stroke-linecap="round" stroke-linejoin="round" stroke-width="1.918"/>
<path d="M68.492 132.3C68.492 133.183 67.777 133.898 66.894 133.898C66.012 133.898 65.296 133.183 65.296 132.3C65.296 131.418 66.012 130.702 66.894 130.702C67.777 130.702 68.492 131.418 68.492 132.3" fill="#000000" fill-rule="nonzero" opacity="1" stroke="none"/>
<path d="M133.115 130.65L132.96 130.643C131.634 124.028 126.448 119.088 120.239 119.088C119.746 119.088 119.261 119.126 118.782 119.187C116.434 115.748 112.777 113.527 108.657 113.527C103.357 113.527 98.809 117.188 96.852 122.41C95.333 121.899 93.702 121.685 92.002 121.871C86.794 122.441 82.42 126.745 80.903 132.449C80.881 132.531 80.86 132.613 80.84 132.695C79.967 136.202 82.422 139.655 85.622 139.655L132.844 139.655C137.942 139.655 138.207 130.924 133.115 130.65" fill="#63cdda" fill-rule="nonzero" opacity="1" stroke="none"/>
<path d="M133.115 130.65L132.96 130.643C131.634 124.028 126.448 119.088 120.239 119.088C119.746 119.088 119.261 119.126 118.782 119.187C116.434 115.748 112.777 113.527 108.657 113.527C103.357 113.527 98.809 117.188 96.852 122.41C95.333 121.899 93.702 121.685 92.002 121.871C86.794 122.441 82.42 126.745 80.903 132.449C80.881 132.531 80.86 132.613 80.84 132.695C79.967 136.202 82.422 139.655 85.622 139.655L132.844 139.655C137.942 139.655 138.207 130.924 133.115 130.65Z" fill="none" opacity="1" stroke="#000000" stroke-linecap="round" stroke-linejoin="round" stroke-width="1.531"/>
<path d="M117.074 123.031C114.838 118.279 109.173 116.24 104.421 118.476" fill="none" opacity="1" stroke="#000000" stroke-linecap="round" stroke-linejoin="round" stroke-width="1.531"/>
<path d="M29.9154 61.5768L8.45136 55.4648C6.31436 54.8568 5.07536 52.6318 5.68336 50.4938L8.46936 40.7108C9.07836 38.5738 11.3034 37.3348 13.4394 37.9438L34.9044 44.0558C37.0414 44.6638 38.2804 46.8888 37.6724 49.0258L34.8864 58.8098C34.2774 60.9468 32.0524 62.1848 29.9154 61.5768" fill="#ffffff" fill-rule="nonzero" opacity="1" stroke="none"/>
<path d="M29.9154 61.5768L8.45136 55.4648C6.31436 54.8568 5.07536 52.6318 5.68336 50.4938L8.46936 40.7108C9.07836 38.5738 11.3034 37.3348 13.4394 37.9438L34.9044 44.0558C37.0414 44.6638 38.2804 46.8888 37.6724 49.0258L34.8864 58.8098C34.2774 60.9468 32.0524 62.1848 29.9154 61.5768Z" fill="none" opacity="1" stroke="#000000" stroke-linecap="round" stroke-linejoin="round" stroke-width="1.531"/>
<path d="M41.991 65.3043L37.885 64.1353C35.748 63.5263 34.509 61.3013 35.117 59.1643L37.979 49.1133C38.588 46.9763 40.813 45.7383 42.95 46.3463L47.056 47.5153C49.193 48.1233 50.432 50.3493 49.824 52.4863L46.962 62.5363C46.353 64.6733 44.128 65.9123 41.991 65.3043" fill="#63cdda" fill-rule="nonzero" opacity="1" stroke="none"/>
<path d="M41.991 65.3043L37.885 64.1353C35.748 63.5263 34.509 61.3013 35.117 59.1643L37.979 49.1133C38.588 46.9763 40.813 45.7383 42.95 46.3463L47.056 47.5153C49.193 48.1233 50.432 50.3493 49.824 52.4863L46.962 62.5363C46.353 64.6733 44.128 65.9123 41.991 65.3043Z" fill="none" opacity="1" stroke="#000000" stroke-linecap="round" stroke-linejoin="round" stroke-width="1.531"/>
<path d="M19.3284 49.2574C19.3424 49.2174 19.3494 49.1774 19.3554 49.1374C20.4504 48.9434 22.0334 48.4764 21.7864 47.4184C21.5484 46.3994 19.8514 46.6374 18.8604 46.8704L16.7904 43.9934C16.6894 43.8524 16.5164 43.7794 16.3454 43.8054L15.7314 43.8994C15.4564 43.9404 15.2804 44.2124 15.3534 44.4804L16.1864 47.5064L13.3094 48.4374L11.6184 47.1944C11.3694 47.0104 11.0624 47.3334 11.2584 47.5724L12.5704 49.1744L12.6234 49.4284L12.0214 51.4044C11.9314 51.7004 12.3374 51.8824 12.4974 51.6184L13.6014 49.8044L16.6224 49.4994L16.7074 52.2574C16.7204 52.6544 17.0764 52.9524 17.4694 52.8934L17.7404 52.8524C17.9864 52.8154 18.1914 52.6434 18.2704 52.4074L19.3284 49.2574Z" fill="#ffffff" fill-rule="nonzero" opacity="1" stroke="none"/>
<path d="M19.3284 49.2574C19.3424 49.2174 19.3494 49.1774 19.3554 49.1374C20.4504 48.9434 22.0334 48.4764 21.7864 47.4184C21.5484 46.3994 19.8514 46.6374 18.8604 46.8704L16.7904 43.9934C16.6894 43.8524 16.5164 43.7794 16.3454 43.8054L15.7314 43.8994C15.4564 43.9404 15.2804 44.2124 15.3534 44.4804L16.1864 47.5064L13.3094 48.4374L11.6184 47.1944C11.3694 47.0104 11.0624 47.3334 11.2584 47.5724L12.5704 49.1744L12.6234 49.4284L12.0214 51.4044C11.9314 51.7004 12.3374 51.8824 12.4974 51.6184L13.6014 49.8044L16.6224 49.4994L16.7074 52.2574C16.7204 52.6544 17.0764 52.9524 17.4694 52.8934L17.7404 52.8524C17.9864 52.8154 18.1914 52.6434 18.2704 52.4074L19.3284 49.2574Z" fill="none" opacity="1" stroke="#000000" stroke-linecap="round" stroke-linejoin="round" stroke-width="0.93"/>
<path d="M25.1542 46.3053L32.8772 48.5043" fill="none" opacity="1" stroke="#000000" stroke-linecap="round" stroke-linejoin="round" stroke-width="1.918"/>
<path d="M23.9887 50.3976L31.7127 52.5966" fill="none" opacity="1" stroke="#000000" stroke-linecap="round" stroke-linejoin="round" stroke-width="1.918"/>
<path d="M22.8236 54.4898L30.5466 56.6888" fill="none" opacity="1" stroke="#000000" stroke-linecap="round" stroke-linejoin="round" stroke-width="1.918"/>
<path d="M45.747 52.5426L43.548 60.2666" fill="none" opacity="1" stroke="#000000" stroke-linecap="round" stroke-linejoin="round" stroke-width="1.918"/>
<path d="M41.6551 51.3775L39.4561 59.1005" fill="none" opacity="1" stroke="#000000" stroke-linecap="round" stroke-linejoin="round" stroke-width="1.918"/>
<path d="M48.9954 142.847L18.7914 142.847" fill="none" opacity="1" stroke="#000000" stroke-linecap="round" stroke-linejoin="round" stroke-width="1.918"/>
<path d="M55.388 142.847C55.388 143.73 54.673 144.445 53.79 144.445C52.907 144.445 52.192 143.73 52.192 142.847C52.192 141.965 52.907 141.249 53.79 141.249C54.673 141.249 55.388 141.965 55.388 142.847" fill="#000000" fill-rule="nonzero" opacity="1" stroke="none"/>
<path d="M138.323 55.4029C138.323 56.9879 137.037 58.2749 135.451 58.2749C133.865 58.2749 132.58 56.9879 132.58 55.4029C132.58 53.8169 133.865 52.5309 135.451 52.5309C137.037 52.5309 138.323 53.8169 138.323 55.4029" fill="#63cdda" fill-rule="nonzero" opacity="1" stroke="none"/>
<path d="M138.323 55.4029C138.323 56.9879 137.037 58.2749 135.451 58.2749C133.865 58.2749 132.58 56.9879 132.58 55.4029C132.58 53.8169 133.865 52.5309 135.451 52.5309C137.037 52.5309 138.323 53.8169 138.323 55.4029Z" fill="none" opacity="1" stroke="#000000" stroke-linecap="round" stroke-linejoin="round" stroke-width="1.06"/>
<path d="M91.9783 23.4464C91.9783 25.0324 90.6933 26.3174 89.1073 26.3174C87.5213 26.3174 86.2353 25.0324 86.2353 23.4464C86.2353 21.8604 87.5213 20.5744 89.1073 20.5744C90.6933 20.5744 91.9783 21.8604 91.9783 23.4464" fill="#63cdda" fill-rule="nonzero" opacity="1" stroke="none"/>
<path d="M91.9783 23.4464C91.9783 25.0324 90.6933 26.3174 89.1073 26.3174C87.5213 26.3174 86.2353 25.0324 86.2353 23.4464C86.2353 21.8604 87.5213 20.5744 89.1073 20.5744C90.6933 20.5744 91.9783 21.8604 91.9783 23.4464Z" fill="none" opacity="1" stroke="#000000" stroke-linecap="round" stroke-linejoin="round" stroke-width="1.06"/>
<path d="M134.168 115.171C134.168 116.757 132.882 118.042 131.297 118.042C129.711 118.042 128.425 116.757 128.425 115.171C128.425 113.585 129.711 112.299 131.297 112.299C132.882 112.299 134.168 113.585 134.168 115.171Z" fill="none" opacity="1" stroke="#000000" stroke-linecap="round" stroke-linejoin="round" stroke-width="1.06"/>
<path d="M13.2821 94.2696C9.48006 99.5166 7.28506 105.688 7.28506 112.294C7.28506 117.285 8.54606 122.023 10.7971 126.307" fill="none" opacity="1" stroke="#000000" stroke-linecap="round" stroke-linejoin="round" stroke-width="1.918"/>
</g>
</svg>
