<?xml version="1.0" encoding="UTF-8" standalone="no"?>
<!DOCTYPE svg PUBLIC "-//W3C//DTD SVG 1.1//EN" "http://www.w3.org/Graphics/SVG/1.1/DTD/svg11.dtd">
<!-- Created with Vectornator (http://vectornator.io/) -->
<svg height="100%" stroke-miterlimit="10" style="fill-rule:nonzero;clip-rule:evenodd;stroke-linecap:round;stroke-linejoin:round;" version="1.1" viewBox="0 0 150.184 154.31" width="100%" xml:space="preserve" xmlns="http://www.w3.org/2000/svg" xmlns:vectornator="http://vectornator.io" xmlns:xlink="http://www.w3.org/1999/xlink">
<defs/>
<g id="Calque-1" vectornator:layerName="Calque 1">
<g opacity="0.199997">
<clipPath id="ClipPath">
<path d="M0.673457 146.615L148.815 146.615L148.815 0.870451L0.673457 0.870451L0.673457 146.615Z"/>
</clipPath>
<g clip-path="url(#ClipPath)">
<path d="M141.145 132.712L119.498 132.712C122.421 129.259 124.731 125.27 126.247 120.906C139.576 114.685 148.816 101.169 148.816 85.4892C148.816 70.6442 140.537 57.7332 128.344 51.1202C129.772 47.1752 130.553 42.9202 130.553 38.4832C130.553 29.6892 127.49 21.6152 122.38 15.2542L133.474 15.2542C135.583 15.2542 137.31 13.5272 137.31 11.4182C137.31 9.30915 135.583 7.58315 133.474 7.58315L114.011 7.58315C108.118 3.64815 101.039 1.35015 93.4195 1.35015C84.2475 1.35015 75.8575 4.68315 69.3785 10.1942C62.5585 4.38415 53.7225 0.871153 44.0615 0.871153C22.4825 0.871153 4.98854 18.3642 4.98854 39.9442C4.98854 49.9352 8.74354 59.0452 14.9135 65.9542C14.7115 66.1492 14.5205 66.3532 14.3255 66.5522L5.94754 66.5522C4.10154 66.5522 2.59154 68.0622 2.59154 69.9082C2.59154 71.5402 3.77454 72.9052 5.32454 73.2002C5.69254 73.4102 6.11254 73.5402 6.56554 73.5402L8.60354 73.5402C3.60254 81.0042 0.673535 89.9722 0.673535 99.6322C0.673535 125.58 21.7085 146.615 47.6575 146.615C56.3265 146.615 64.4405 144.258 71.4115 140.163C77.1335 143.768 83.9045 145.86 91.1665 145.86C92.4635 145.86 93.7435 145.786 95.0055 145.656L125.564 145.656C127.805 145.656 129.639 143.822 129.639 141.581C129.639 140.788 129.401 140.052 129.004 139.424L141.145 139.424C142.991 139.424 144.501 137.914 144.501 136.068C144.501 134.222 142.991 132.712 141.145 132.712" fill="#63cdda" fill-rule="nonzero" opacity="1" stroke="none"/>
</g>
</g>
<path d="M123.406 47.8541L128.66 52.6251" fill="none" opacity="1" stroke="#000000" stroke-linecap="round" stroke-linejoin="round" stroke-width="1.918"/>
<path d="M128.419 47.613L123.648 52.867" fill="none" opacity="1" stroke="#000000" stroke-linecap="round" stroke-linejoin="round" stroke-width="1.918"/>
<path d="M88.249 18.6242L113.338 18.6242" fill="none" opacity="1" stroke="#000000" stroke-linecap="round" stroke-linejoin="round" stroke-width="1.918"/>
<path d="M95.1202 12.0075L125.324 12.0075" fill="none" opacity="1" stroke="#000000" stroke-linecap="round" stroke-linejoin="round" stroke-width="1.918"/>
<path d="M84.7325 18.4498C84.7325 19.3318 84.0175 20.0478 83.1345 20.0478C82.2525 20.0478 81.5365 19.3318 81.5365 18.4498C81.5365 17.5668 82.2525 16.8518 83.1345 16.8518C84.0175 16.8518 84.7325 17.5668 84.7325 18.4498" fill="#000000" fill-rule="nonzero" opacity="1" stroke="none"/>
<path d="M132.355 12.0075C132.355 12.8895 131.639 13.6055 130.757 13.6055C129.875 13.6055 129.159 12.8895 129.159 12.0075C129.159 11.1245 129.875 10.4095 130.757 10.4095C131.639 10.4095 132.355 11.1245 132.355 12.0075" fill="#000000" fill-rule="nonzero" opacity="1" stroke="none"/>
<path d="M54.7911 122.788L76.2151 82.8802C77.5531 80.3882 81.0921 80.2952 82.5591 82.7142L106.568 122.309" fill="#ffffff" fill-rule="nonzero" opacity="1" stroke="none"/>
<path d="M54.7911 122.788L76.2151 82.8802C77.5531 80.3882 81.0921 80.2952 82.5591 82.7142L106.568 122.309" fill="none" opacity="1" stroke="#000000" stroke-linecap="round" stroke-linejoin="round" stroke-width="1.918"/>
<path d="M20.752 125.665L42.382 85.3733C43.629 83.0513 46.927 82.9643 48.294 85.2183L72.529 125.186" fill="#ffffff" fill-rule="nonzero" opacity="1" stroke="none"/>
<path d="M20.752 125.665L42.382 85.3733C43.629 83.0513 46.927 82.9643 48.294 85.2183L72.529 125.186" fill="none" opacity="1" stroke="#000000" stroke-linecap="round" stroke-linejoin="round" stroke-width="1.918"/>
<path d="M14.8477 125.933L79.9597 126.144" fill="#ffffff" fill-rule="nonzero" opacity="1" stroke="none"/>
<path d="M14.8477 125.933L79.9597 126.144" fill="none" opacity="1" stroke="#000000" stroke-linecap="round" stroke-linejoin="round" stroke-width="1.918"/>
<path d="M89.3085 123.028L117.835 123.028" fill="#ffffff" fill-rule="nonzero" opacity="1" stroke="none"/>
<path d="M89.3085 123.028L117.835 123.028" fill="none" opacity="1" stroke="#000000" stroke-linecap="round" stroke-linejoin="round" stroke-width="1.918"/>
<path d="M33.4561 103.132L37.6101 100.488C38.2381 100.089 39.0681 100.251 39.5011 100.856L42.4381 104.968C42.9811 105.728 44.1021 105.753 44.6791 105.019L47.7811 101.07C48.3141 100.392 49.3281 100.352 49.9121 100.987L52.9621 104.302C53.6181 105.016 54.7841 104.861 55.2331 104.002L57.1871 100.256" fill="#ffffff" fill-rule="nonzero" opacity="1" stroke="none"/>
<path d="M33.4561 103.132L37.6101 100.488C38.2381 100.089 39.0681 100.251 39.5011 100.856L42.4381 104.968C42.9811 105.728 44.1021 105.753 44.6791 105.019L47.7811 101.07C48.3141 100.392 49.3281 100.352 49.9121 100.987L52.9621 104.302C53.6181 105.016 54.7841 104.861 55.2331 104.002L57.1871 100.256" fill="none" opacity="1" stroke="#000000" stroke-linecap="round" stroke-linejoin="round" stroke-width="1.918"/>
<path d="M89.4697 93.7766C88.8417 93.3776 88.0117 93.5386 87.5787 94.1446L84.6417 98.2556C84.0987 99.0156 82.9787 99.0416 82.4017 98.3076L79.2987 94.3586C78.7667 93.6796 77.7517 93.6406 77.1677 94.2756L74.1177 97.5896C73.4617 98.3036 72.2957 98.1496 71.8467 97.2896L69.6527 95.4616" fill="#ffffff" fill-rule="nonzero" opacity="1" stroke="none"/>
<path d="M89.4697 93.7766C88.8417 93.3776 88.0117 93.5386 87.5787 94.1446L84.6417 98.2556C84.0987 99.0156 82.9787 99.0416 82.4017 98.3076L79.2987 94.3586C78.7667 93.6796 77.7517 93.6406 77.1677 94.2756L74.1177 97.5896C73.4617 98.3036 72.2957 98.1496 71.8467 97.2896L69.6527 95.4616" fill="none" opacity="1" stroke="#000000" stroke-linecap="round" stroke-linejoin="round" stroke-width="1.918"/>
<path d="M102.701 64.6707L88.0282 62.6177C86.2682 62.3717 85.0422 60.7467 85.2882 58.9867L88.1972 38.1917C88.4432 36.4317 90.0692 35.2057 91.8292 35.4517L106.501 37.5037C108.261 37.7507 109.487 39.3767 109.241 41.1357L106.332 61.9307C106.086 63.6907 104.46 64.9167 102.701 64.6707" fill="#ffffff" fill-rule="nonzero" opacity="1" stroke="none"/>
<path d="M102.701 64.6707L88.0282 62.6177C86.2682 62.3717 85.0422 60.7467 85.2882 58.9867L88.1972 38.1917C88.4432 36.4317 90.0692 35.2057 91.8292 35.4517L106.501 37.5037C108.261 37.7507 109.487 39.3767 109.241 41.1357L106.332 61.9307C106.086 63.6907 104.46 64.9167 102.701 64.6707Z" fill="none" opacity="1" stroke="#000000" stroke-linecap="round" stroke-linejoin="round" stroke-width="1.534"/>
<path d="M102.135 46.7268C101.791 49.1788 99.5258 50.8888 97.0728 50.5458C94.6208 50.2028 92.9108 47.9368 93.2538 45.4848C93.5978 43.0318 95.8638 41.3228 98.3158 41.6648C100.768 42.0088 102.478 44.2748 102.135 46.7268" fill="#ffffff" fill-rule="nonzero" opacity="1" stroke="none"/>
<g opacity="1">
<clipPath id="ClipPath_2">
<path d="M93.2535 45.4855C92.9105 47.9365 94.6205 50.2025 97.0735 50.5455C99.5255 50.8885 101.791 49.1785 102.134 46.7275C102.477 44.2745 100.767 42.0085 98.3155 41.6655C98.1045 41.6355 97.8955 41.6215 97.6885 41.6215C95.4885 41.6215 93.5675 43.2425 93.2535 45.4855"/>
</clipPath>
<g clip-path="url(#ClipPath_2)">
<path d="M99.9141 46.4162C99.5711 48.8682 98.2991 50.7172 97.0731 50.5452C95.8471 50.3742 95.1311 48.2472 95.4751 45.7952C95.8171 43.3432 97.0891 41.4942 98.3151 41.6652C99.5421 41.8372 100.258 43.9642 99.9141 46.4162" fill="#ffffff" fill-rule="nonzero" opacity="1" stroke="none"/>
<path d="M99.9141 46.4162C99.5711 48.8682 98.2991 50.7172 97.0731 50.5452C95.8471 50.3742 95.1311 48.2472 95.4751 45.7952C95.8171 43.3432 97.0891 41.4942 98.3151 41.6652C99.5421 41.8372 100.258 43.9642 99.9141 46.4162Z" fill="none" opacity="1" stroke="#000000" stroke-linecap="round" stroke-linejoin="round" stroke-width="0.959"/>
<path d="M104.425 41.2751C104.108 43.5441 101.217 45.0141 97.9669 44.5591C94.7179 44.1051 92.3419 41.8981 92.6579 39.6291C92.9759 37.3611 95.8669 35.8901 99.1159 36.3451C102.365 36.7991 104.742 39.0071 104.425 41.2751Z" fill="none" opacity="1" stroke="#000000" stroke-linecap="round" stroke-linejoin="round" stroke-width="0.959"/>
<path d="M103.038 52.3987C102.721 54.6667 99.83 56.1377 96.581 55.6827C93.332 55.2287 90.955 53.0207 91.272 50.7527C91.59 48.4847 94.48 47.0137 97.729 47.4687C100.979 47.9227 103.355 50.1307 103.038 52.3987Z" fill="none" opacity="1" stroke="#000000" stroke-linecap="round" stroke-linejoin="round" stroke-width="0.959"/>
</g>
</g>
<path d="M102.135 46.7268C101.791 49.1788 99.5258 50.8888 97.0728 50.5458C94.6208 50.2028 92.9108 47.9368 93.2538 45.4848C93.5978 43.0318 95.8638 41.3228 98.3158 41.6648C100.768 42.0088 102.478 44.2748 102.135 46.7268Z" fill="none" opacity="1" stroke="#000000" stroke-linecap="round" stroke-linejoin="round" stroke-width="0.959"/>
<g fill="#000000" opacity="1" stroke="none">
<path d="M89.8561 53.1226L91.9557 53.4164C92.3707 53.4744 92.6889 53.6382 92.9103 53.9078C93.1317 54.1773 93.2127 54.5238 93.1535 54.9473C93.1025 55.3116 92.9449 55.6128 92.6805 55.8511C92.4162 56.0894 92.0489 56.1756 91.5788 56.1099L90.1114 55.9046L89.8354 57.8771L89.2033 57.7886L89.8561 53.1226ZM92.5146 54.8612C92.5626 54.5182 92.4681 54.2674 92.2312 54.1091C92.1006 54.0239 91.9136 53.9643 91.67 53.9302L90.4122 53.7542L90.186 55.371L91.4439 55.5469C91.7276 55.5866 91.9663 55.5585 92.16 55.4625C92.3537 55.3666 92.4719 55.1661 92.5146 54.8612Z"/>
<path d="M95.6647 56.743L95.2448 54.5825L94.2036 56.5386L95.6647 56.743ZM95.0113 53.8439L95.726 53.9438L96.7661 58.8467L96.0737 58.7498L95.796 57.286L93.9505 57.0279L93.25 58.3548L92.602 58.2641L95.0113 53.8439Z"/>
<path d="M97.9646 57.4793C97.9424 57.7461 97.9748 57.9698 98.0618 58.1504C98.2282 58.4888 98.5761 58.6951 99.1055 58.7692C99.3426 58.8024 99.5634 58.7987 99.7676 58.7582C100.163 58.6796 100.384 58.471 100.432 58.1322C100.467 57.8781 100.413 57.6859 100.269 57.5557C100.123 57.4273 99.8842 57.2999 99.5522 57.1736L98.9401 56.9422C98.5402 56.7913 98.2623 56.6477 98.1065 56.5115C97.8373 56.2752 97.7298 55.9633 97.784 55.5758C97.8427 55.1565 98.0359 54.8327 98.3636 54.6043C98.6913 54.376 99.1209 54.299 99.6525 54.3734C100.142 54.4418 100.541 54.618 100.85 54.9019C101.159 55.1859 101.277 55.5873 101.204 56.1061L100.61 56.023C100.613 55.7687 100.572 55.5675 100.487 55.4196C100.329 55.1491 100.019 54.9816 99.557 54.917C99.1843 54.8649 98.9054 54.9058 98.7205 55.0396C98.5355 55.1735 98.4285 55.3442 98.3995 55.5517C98.3675 55.7804 98.4393 55.9611 98.6151 56.0936C98.7306 56.1788 99.0014 56.3031 99.4276 56.4664L100.061 56.7072C100.367 56.8233 100.596 56.9559 100.75 57.1048C101.016 57.3644 101.12 57.7017 101.062 58.1167C100.99 58.6334 100.75 58.9766 100.343 59.1464C99.9363 59.3161 99.484 59.3662 98.9863 59.2966C98.4061 59.2154 97.9727 59.0036 97.6859 58.6613C97.3989 58.321 97.2938 57.8993 97.3706 57.3962L97.9646 57.4793Z"/>
<path d="M102.303 58.0864C102.281 58.3531 102.314 58.5768 102.401 58.7574C102.567 59.0959 102.915 59.3022 103.444 59.3762C103.681 59.4094 103.902 59.4057 104.107 59.3652C104.502 59.2867 104.723 59.078 104.771 58.7392C104.806 58.4851 104.752 58.2929 104.608 58.1627C104.462 58.0343 104.223 57.9069 103.891 57.7806L103.279 57.5492C102.879 57.3983 102.601 57.2547 102.445 57.1185C102.176 56.8822 102.069 56.5703 102.123 56.1828C102.182 55.7635 102.375 55.4397 102.702 55.2114C103.03 54.983 103.46 54.906 103.991 54.9804C104.48 55.0488 104.88 55.225 105.188 55.509C105.497 55.7929 105.616 56.1943 105.543 56.7131L104.949 56.63C104.952 56.3757 104.911 56.1746 104.826 56.0266C104.668 55.7562 104.357 55.5886 103.896 55.524C103.523 55.4719 103.244 55.5128 103.059 55.6467C102.874 55.7806 102.767 55.9513 102.738 56.1588C102.706 56.3875 102.778 56.5681 102.954 56.7006C103.069 56.7859 103.34 56.9101 103.766 57.0734L104.4 57.3142C104.705 57.4304 104.935 57.5629 105.089 57.7118C105.355 57.9714 105.459 58.3087 105.401 58.7238C105.329 59.2404 105.089 59.5837 104.682 59.7534C104.275 59.9232 103.823 59.9732 103.325 59.9036C102.745 59.8224 102.312 59.6107 102.025 59.2683C101.738 58.928 101.633 58.5064 101.709 58.0033L102.303 58.0864Z"/>
</g>
<path d="M129.974 67.1863C129.553 68.4663 128.174 69.1623 126.894 68.7403C125.615 68.3193 124.918 66.9403 125.34 65.6603C125.761 64.3813 127.14 63.6853 128.419 64.1063C129.7 64.5273 130.395 65.9063 129.974 67.1863" fill="#ffffff" fill-rule="nonzero" opacity="1" stroke="none"/>
<path d="M129.974 67.1863C129.553 68.4663 128.174 69.1623 126.894 68.7403C125.615 68.3193 124.918 66.9403 125.34 65.6603C125.761 64.3813 127.14 63.6853 128.419 64.1063C129.7 64.5273 130.395 65.9063 129.974 67.1863Z" fill="none" opacity="1" stroke="#000000" stroke-linecap="round" stroke-linejoin="round" stroke-width="1.438"/>
<path d="M137.107 86.428C139.86 78.068 135.313 69.059 126.953 66.306C118.592 63.553 109.584 68.1 106.831 76.46L137.107 86.428Z" fill="#63cdda" fill-rule="nonzero" opacity="1" stroke="none"/>
<g opacity="1">
<clipPath id="ClipPath_3">
<path d="M106.831 76.4605L137.107 86.4275C139.86 78.0675 135.313 69.0585 126.953 66.3055C125.298 65.7615 123.619 65.5025 121.967 65.5025C115.272 65.5025 109.039 69.7545 106.831 76.4605"/>
</clipPath>
<g clip-path="url(#ClipPath_3)">
<path d="M116.381 80.5173C117.979 75.6633 124.281 65.6883 127.641 66.7943C131 67.9003 130.145 79.6683 128.547 84.5223" fill="#63cdda" fill-rule="nonzero" opacity="1" stroke="none"/>
<path d="M116.381 80.5173C117.979 75.6633 124.281 65.6883 127.641 66.7943C131 67.9003 130.145 79.6683 128.547 84.5223" fill="none" opacity="1" stroke="#000000" stroke-linecap="round" stroke-linejoin="round" stroke-width="1.438"/>
</g>
</g>
<path d="M137.107 86.428C139.86 78.068 135.313 69.059 126.953 66.306C118.592 63.553 109.584 68.1 106.831 76.46L137.107 86.428Z" fill="none" opacity="1" stroke="#000000" stroke-linecap="round" stroke-linejoin="round" stroke-width="1.438"/>
<path d="M122.521 82.0251L116.622 99.9431" fill="#ffffff" fill-rule="nonzero" opacity="1" stroke="none"/>
<path d="M122.521 82.0251L116.622 99.9431" fill="none" opacity="1" stroke="#000000" stroke-linecap="round" stroke-linejoin="round" stroke-width="1.438"/>
<path d="M112.699 104.067L110.141 104.067C109.373 104.067 108.744 103.438 108.744 102.669C108.744 101.9 109.373 101.271 110.141 101.271L112.699 101.271C113.468 101.271 114.097 101.9 114.097 102.669C114.097 103.438 113.468 104.067 112.699 104.067" fill="#ffffff" fill-rule="nonzero" opacity="1" stroke="none"/>
<path d="M112.699 104.067L110.141 104.067C109.373 104.067 108.744 103.438 108.744 102.669C108.744 101.9 109.373 101.271 110.141 101.271L112.699 101.271C113.468 101.271 114.097 101.9 114.097 102.669C114.097 103.438 113.468 104.067 112.699 104.067Z" fill="none" opacity="1" stroke="#000000" stroke-linecap="round" stroke-linejoin="round" stroke-width="0.959"/>
<path d="M125.204 104.067L122.646 104.067C121.878 104.067 121.249 103.438 121.249 102.669C121.249 101.9 121.878 101.271 122.646 101.271L125.204 101.271C125.973 101.271 126.602 101.9 126.602 102.669C126.602 103.438 125.973 104.067 125.204 104.067" fill="#ffffff" fill-rule="nonzero" opacity="1" stroke="none"/>
<path d="M125.204 104.067L122.646 104.067C121.878 104.067 121.249 103.438 121.249 102.669C121.249 101.9 121.878 101.271 122.646 101.271L125.204 101.271C125.973 101.271 126.602 101.9 126.602 102.669C126.602 103.438 125.973 104.067 125.204 104.067Z" fill="none" opacity="1" stroke="#000000" stroke-linecap="round" stroke-linejoin="round" stroke-width="0.959"/>
<path d="M137.937 87.8024C137.093 87.2074 135.916 87.4114 135.321 88.2554L128.004 98.6334L104.308 98.6334C103.341 98.6334 102.55 99.4244 102.55 100.39C102.55 101.358 103.341 102.149 104.308 102.149L129.159 102.149C129.655 102.149 130.103 101.938 130.423 101.604C130.542 101.504 130.654 101.393 130.748 101.26L138.39 90.4194C138.985 89.5744 138.781 88.3974 137.937 87.8024" fill="#ffffff" fill-rule="nonzero" opacity="1" stroke="none"/>
<path d="M137.937 87.8024C137.093 87.2074 135.916 87.4114 135.321 88.2554L128.004 98.6334L104.308 98.6334C103.341 98.6334 102.55 99.4244 102.55 100.39C102.55 101.358 103.341 102.149 104.308 102.149L129.159 102.149C129.655 102.149 130.103 101.938 130.423 101.604C130.542 101.504 130.654 101.393 130.748 101.26L138.39 90.4194C138.985 89.5744 138.781 88.3974 137.937 87.8024Z" fill="none" opacity="1" stroke="#000000" stroke-linecap="round" stroke-linejoin="round" stroke-width="1.565"/>
<path d="M104.709 105.225L133.234 105.225" fill="#ffffff" fill-rule="nonzero" opacity="1" stroke="none"/>
<path d="M104.709 105.225L133.234 105.225" fill="none" opacity="1" stroke="#000000" stroke-linecap="round" stroke-linejoin="round" stroke-width="1.918"/>
<path d="M30.418 56.9866L35.672 61.7576" fill="none" opacity="1" stroke="#000000" stroke-linecap="round" stroke-linejoin="round" stroke-width="1.918"/>
<path d="M35.4307 56.7453L30.6597 61.9993" fill="none" opacity="1" stroke="#000000" stroke-linecap="round" stroke-linejoin="round" stroke-width="1.918"/>
<path d="M16.4952 70.9313L41.5842 70.9313" fill="none" opacity="1" stroke="#000000" stroke-linecap="round" stroke-linejoin="round" stroke-width="1.918"/>
<path d="M23.3663 79.656L53.5703 79.656" fill="none" opacity="1" stroke="#000000" stroke-linecap="round" stroke-linejoin="round" stroke-width="1.918"/>
<path d="M60.6016 79.656C60.6016 80.539 59.8856 81.254 59.0036 81.254C58.1216 81.254 57.4056 80.539 57.4056 79.656C57.4056 78.774 58.1216 78.058 59.0036 78.058C59.8856 78.058 60.6016 78.774 60.6016 79.656" fill="#000000" fill-rule="nonzero" opacity="1" stroke="none"/>
<path d="M70.0781 30.7858L72.9611 31.4548L76.9821 27.1538C73.3881 23.7938 67.7511 23.9838 64.3911 27.5778C61.0311 31.1718 61.2211 36.8088 64.8151 40.1688L70.9401 33.6168L70.0781 30.7858Z" fill="#ffffff" fill-rule="nonzero" opacity="1" stroke="none"/>
<path d="M70.0781 30.7858L72.9611 31.4548L76.9821 27.1538C73.3881 23.7938 67.7511 23.9838 64.3911 27.5778C61.0311 31.1718 61.2211 36.8088 64.8151 40.1688L70.9401 33.6168L70.0781 30.7858Z" fill="none" opacity="1" stroke="#000000" stroke-linecap="round" stroke-linejoin="round" stroke-width="1.534"/>
<path d="M55.8497 29.2332L53.0777 30.2682L48.5367 26.5192C51.6687 22.7242 57.2847 22.1882 61.0787 25.3212C64.8717 28.4532 65.4087 34.0682 62.2757 37.8622L55.3597 32.1512L55.8497 29.2332Z" fill="#ffffff" fill-rule="nonzero" opacity="1" stroke="none"/>
<path d="M55.8497 29.2332L53.0777 30.2682L48.5367 26.5192C51.6687 22.7242 57.2847 22.1882 61.0787 25.3212C64.8717 28.4532 65.4087 34.0682 62.2757 37.8622L55.3597 32.1512L55.8497 29.2332Z" fill="none" opacity="1" stroke="#000000" stroke-linecap="round" stroke-linejoin="round" stroke-width="1.534"/>
<path d="M66.8174 61.7457L58.8084 61.7457L60.6934 39.6027L65.8754 39.6027L66.8174 61.7457Z" fill="#ffffff" fill-rule="nonzero" opacity="1" stroke="none"/>
<g opacity="1">
<clipPath id="ClipPath_4">
<path d="M60.6935 39.6035L58.8085 61.7465L66.8175 61.7465L65.8745 39.6035L60.6935 39.6035Z"/>
</clipPath>
<g clip-path="url(#ClipPath_4)">
<path d="M60.163 44.3146L66.17 44.3146" fill="#ffffff" fill-rule="nonzero" opacity="1" stroke="none"/>
<path d="M60.163 44.3146L66.17 44.3146" fill="none" opacity="1" stroke="#000000" stroke-linecap="round" stroke-linejoin="round" stroke-width="1.534"/>
<path d="M60.251 48.3782L66.258 48.3782" fill="#ffffff" fill-rule="nonzero" opacity="1" stroke="none"/>
<path d="M60.251 48.3782L66.258 48.3782" fill="none" opacity="1" stroke="#000000" stroke-linecap="round" stroke-linejoin="round" stroke-width="1.534"/>
<path d="M60.251 52.4411L66.258 52.4411" fill="#ffffff" fill-rule="nonzero" opacity="1" stroke="none"/>
<path d="M60.251 52.4411L66.258 52.4411" fill="none" opacity="1" stroke="#000000" stroke-linecap="round" stroke-linejoin="round" stroke-width="1.534"/>
<path d="M59.8096 56.5046L65.8166 56.5046" fill="#ffffff" fill-rule="nonzero" opacity="1" stroke="none"/>
<path d="M59.8096 56.5046L65.8166 56.5046" fill="none" opacity="1" stroke="#000000" stroke-linecap="round" stroke-linejoin="round" stroke-width="1.534"/>
</g>
</g>
<path d="M66.8174 61.7457L58.8084 61.7457L60.6934 39.6027L65.8754 39.6027L66.8174 61.7457Z" fill="none" opacity="1" stroke="#000000" stroke-linecap="round" stroke-linejoin="round" stroke-width="1.534"/>
<path d="M77.2999 72.5812C77.2999 65.2642 70.8929 59.3312 62.9899 59.3312C55.0869 59.3312 48.6799 65.2642 48.6799 72.5812L84.3659 72.9352" fill="#63cdda" fill-rule="nonzero" opacity="1" stroke="none"/>
<path d="M77.2999 72.5812C77.2999 65.2642 70.8929 59.3312 62.9899 59.3312C55.0869 59.3312 48.6799 65.2642 48.6799 72.5812L84.3659 72.9352" fill="none" opacity="1" stroke="#000000" stroke-linecap="round" stroke-linejoin="round" stroke-width="1.534"/>
<path d="M56.4863 38.9396L58.1483 41.2316L63.7523 40.6496C63.2653 35.9666 59.0743 32.5656 54.3913 33.0526C49.7093 33.5396 46.3083 37.7306 46.7953 42.4126L55.3323 41.5246L56.4863 38.9396Z" fill="#ffffff" fill-rule="nonzero" opacity="1" stroke="none"/>
<path d="M56.4863 38.9396L58.1483 41.2316L63.7523 40.6496C63.2653 35.9666 59.0743 32.5656 54.3913 33.0526C49.7093 33.5396 46.3083 37.7306 46.7953 42.4126L55.3323 41.5246L56.4863 38.9396Z" fill="none" opacity="1" stroke="#000000" stroke-linecap="round" stroke-linejoin="round" stroke-width="1.534"/>
<path d="M71.8964 39.7112L68.9414 42.8132L60.7984 40.8402C61.9074 36.2652 66.5144 33.4552 71.0894 34.5632C75.6664 35.6712 78.4764 40.2792 77.3684 44.8552L73.1054 43.8222L71.8964 39.7112Z" fill="#ffffff" fill-rule="nonzero" opacity="1" stroke="none"/>
<path d="M71.8964 39.7112L68.9414 42.8132L60.7984 40.8402C61.9074 36.2652 66.5144 33.4552 71.0894 34.5632C75.6664 35.6712 78.4764 40.2792 77.3684 44.8552L73.1054 43.8222L71.8964 39.7112Z" fill="none" opacity="1" stroke="#000000" stroke-linecap="round" stroke-linejoin="round" stroke-width="1.534"/>
<path d="M98.3165 142.205L123.405 142.205" fill="none" opacity="1" stroke="#000000" stroke-linecap="round" stroke-linejoin="round" stroke-width="1.918"/>
<path d="M105.188 135.589L135.391 135.589" fill="none" opacity="1" stroke="#000000" stroke-linecap="round" stroke-linejoin="round" stroke-width="1.918"/>
<path d="M94.7999 142.031C94.7999 142.913 94.0849 143.629 93.2019 143.629C92.3199 143.629 91.6049 142.913 91.6049 142.031C91.6049 141.148 92.3199 140.432 93.2019 140.432C94.0849 140.432 94.7999 141.148 94.7999 142.031" fill="#000000" fill-rule="nonzero" opacity="1" stroke="none"/>
<path d="M142.423 135.589C142.423 136.472 141.708 137.187 140.825 137.187C139.943 137.187 139.227 136.472 139.227 135.589C139.227 134.707 139.943 133.991 140.825 133.991C141.708 133.991 142.423 134.707 142.423 135.589" fill="#000000" fill-rule="nonzero" opacity="1" stroke="none"/>
<path d="M34.0735 27.5585L20.4954 27.5585L20.4954 16.3715L34.0735 16.3715L34.0735 27.5585Z" fill="#ffffff" fill-rule="nonzero" opacity="1" stroke="none"/>
<path d="M34.0735 27.5585L20.4954 27.5585L20.4954 16.3715L34.0735 16.3715L34.0735 27.5585Z" fill="none" opacity="1" stroke="#000000" stroke-linecap="round" stroke-linejoin="round" stroke-width="1.6"/>
<path d="M26.7645 19.0922L27.4091 19.1031L27.3763 21.0496L29.8263 21.0909L29.8591 19.1444L30.5037 19.1553L30.4242 23.866L29.7796 23.8552L29.8168 21.6521L27.3668 21.6108L27.3296 23.8138L26.6851 23.8029L26.7645 19.0922Z" fill="#000000" opacity="1" stroke="none"/>
<path d="M39.6705 50.8895L15.3795 50.8895L15.3795 26.5985L39.6705 26.5985L39.6705 50.8895Z" fill="#ffffff" fill-rule="nonzero" opacity="1" stroke="none"/>
<g opacity="1">
<clipPath id="ClipPath_5">
<path d="M15.3805 50.8895L39.6715 50.8895L39.6715 26.5995L15.3805 26.5995L15.3805 50.8895Z"/>
</clipPath>
<g clip-path="url(#ClipPath_5)">
<path d="M32.6185 50.2515L22.6475 50.2515L22.6475 43.3605L32.6185 43.3605L32.6185 50.2515Z" fill="#ffffff" fill-rule="nonzero" opacity="1" stroke="none"/>
<path d="M32.6185 50.2515L22.6475 50.2515L22.6475 43.3605L32.6185 43.3605L32.6185 50.2515Z" fill="none" opacity="1" stroke="#000000" stroke-linecap="round" stroke-linejoin="round" stroke-width="0.752"/>
<path d="M23.1955 35.3545L19.3715 35.3545L19.3715 31.1544L23.1955 31.1544L23.1955 35.3545Z" fill="#63cdda" fill-rule="nonzero" opacity="1" stroke="none"/>
<path d="M23.1955 35.3545L19.3715 35.3545L19.3715 31.1544L23.1955 31.1544L23.1955 35.3545Z" fill="none" opacity="1" stroke="#000000" stroke-linecap="round" stroke-linejoin="round" stroke-width="0.752"/>
<path d="M29.3475 35.3545L25.5235 35.3545L25.5235 31.1544L29.3475 31.1544L29.3475 35.3545Z" fill="#63cdda" fill-rule="nonzero" opacity="1" stroke="none"/>
<path d="M29.3475 35.3545L25.5235 35.3545L25.5235 31.1544L29.3475 31.1544L29.3475 35.3545Z" fill="none" opacity="1" stroke="#000000" stroke-linecap="round" stroke-linejoin="round" stroke-width="0.752"/>
<path d="M35.5005 35.3545L31.6775 35.3545L31.6775 31.1544L35.5005 31.1544L35.5005 35.3545Z" fill="#63cdda" fill-rule="nonzero" opacity="1" stroke="none"/>
<path d="M35.5005 35.3545L31.6775 35.3545L31.6775 31.1544L35.5005 31.1544L35.5005 35.3545Z" fill="none" opacity="1" stroke="#000000" stroke-linecap="round" stroke-linejoin="round" stroke-width="0.752"/>
<path d="M23.1955 41.1875L19.3715 41.1875L19.3715 36.9875L23.1955 36.9875L23.1955 41.1875Z" fill="#63cdda" fill-rule="nonzero" opacity="1" stroke="none"/>
<path d="M23.1955 41.1875L19.3715 41.1875L19.3715 36.9875L23.1955 36.9875L23.1955 41.1875Z" fill="none" opacity="1" stroke="#000000" stroke-linecap="round" stroke-linejoin="round" stroke-width="0.752"/>
<path d="M29.3475 41.1875L25.5235 41.1875L25.5235 36.9875L29.3475 36.9875L29.3475 41.1875Z" fill="#63cdda" fill-rule="nonzero" opacity="1" stroke="none"/>
<path d="M29.3475 41.1875L25.5235 41.1875L25.5235 36.9875L29.3475 36.9875L29.3475 41.1875Z" fill="none" opacity="1" stroke="#000000" stroke-linecap="round" stroke-linejoin="round" stroke-width="0.752"/>
<path d="M35.5005 41.1875L31.6775 41.1875L31.6775 36.9875L35.5005 36.9875L35.5005 41.1875Z" fill="#63cdda" fill-rule="nonzero" opacity="1" stroke="none"/>
<path d="M35.5005 41.1875L31.6775 41.1875L31.6775 36.9875L35.5005 36.9875L35.5005 41.1875Z" fill="none" opacity="1" stroke="#000000" stroke-linecap="round" stroke-linejoin="round" stroke-width="0.752"/>
</g>
</g>
<path d="M39.6705 50.8895L15.3795 50.8895L15.3795 26.5985L39.6705 26.5985L39.6705 50.8895Z" fill="none" opacity="1" stroke="#000000" stroke-linecap="round" stroke-linejoin="round" stroke-width="1.918"/>
<path d="M8.34864 50.8898L45.7436 50.8898" fill="#ffffff" fill-rule="nonzero" opacity="1" stroke="none"/>
<path d="M8.34864 50.8898L45.7436 50.8898" fill="none" opacity="1" stroke="#000000" stroke-linecap="round" stroke-linejoin="round" stroke-width="1.918"/>
<path d="M15.9805 142.118C21.2565 146.933 27.8675 150.356 35.3605 151.708C41.0215 152.729 46.6195 152.458 51.8775 151.119" fill="none" opacity="1" stroke="#000000" stroke-linecap="round" stroke-linejoin="round" stroke-width="2.059"/>
</g>
</svg>
